<svg id="Capa_1" data-name="Capa 1" xmlns="http://www.w3.org/2000/svg" viewBox="0 0 97.29 97.29"><defs><style>.cls-1{fill:#c0bcb9;}</style></defs><path class="cls-1" d="M50,98.64A48.64,48.64,0,1,1,98.64,50,48.7,48.7,0,0,1,50,98.64ZM50,4.16A45.84,45.84,0,1,0,95.84,50,45.89,45.89,0,0,0,50,4.16Z" transform="translate(-1.36 -1.36)"/><path class="cls-1" d="M69.09,63.25l2.15-14.07H57.75V40.06c0-3.85,1.88-7.6,7.93-7.6h6.13v-12a74.87,74.87,0,0,0-10.89-.95c-11.11,0-18.38,6.74-18.38,18.93V49.18H30.19V63.25H42.54v34a49.31,49.31,0,0,0,15.21,0v-34Z" transform="translate(-1.36 -1.36)"/></svg>