<svg id="Capa_1" data-name="Capa 1" xmlns="http://www.w3.org/2000/svg" viewBox="0 0 97.29 97.29"><defs><style>.cls-1{fill:#c0bcb9;}</style></defs><path class="cls-1" d="M50,98.64A48.64,48.64,0,1,1,98.64,50,48.7,48.7,0,0,1,50,98.64ZM50,4.16A45.84,45.84,0,1,0,95.84,50,45.89,45.89,0,0,0,50,4.16Z" transform="translate(-1.36 -1.36)"/><path class="cls-1" d="M50,25.61c7.94,0,8.88,0,12,.18a16.29,16.29,0,0,1,5.52,1,9.91,9.91,0,0,1,5.65,5.65,16.29,16.29,0,0,1,1,5.52c.15,3.14.18,4.08.18,12s0,8.88-.18,12a16.29,16.29,0,0,1-1,5.52,9.91,9.91,0,0,1-5.65,5.65,16.29,16.29,0,0,1-5.52,1c-3.14.15-4.08.18-12,.18s-8.88,0-12-.18a16.29,16.29,0,0,1-5.52-1,9.91,9.91,0,0,1-5.65-5.65,16.29,16.29,0,0,1-1-5.52c-.15-3.14-.18-4.08-.18-12s0-8.88.18-12a16.29,16.29,0,0,1,1-5.52,9.91,9.91,0,0,1,5.65-5.65,16.29,16.29,0,0,1,5.52-1c3.14-.15,4.08-.18,12-.18m0-5.36c-8.08,0-9.09,0-12.26.18a21.8,21.8,0,0,0-7.22,1.39,15.19,15.19,0,0,0-8.7,8.7,21.8,21.8,0,0,0-1.39,7.22c-.14,3.17-.18,4.18-.18,12.26s0,9.09.18,12.26a21.8,21.8,0,0,0,1.39,7.22,15.19,15.19,0,0,0,8.7,8.7,21.8,21.8,0,0,0,7.22,1.39c3.17.14,4.18.18,12.26.18s9.09,0,12.26-.18a21.8,21.8,0,0,0,7.22-1.39,15.19,15.19,0,0,0,8.7-8.7,21.8,21.8,0,0,0,1.39-7.22c.14-3.17.18-4.18.18-12.26s0-9.09-.18-12.26a21.8,21.8,0,0,0-1.39-7.22,15.19,15.19,0,0,0-8.7-8.7,21.8,21.8,0,0,0-7.22-1.39c-3.17-.14-4.18-.18-12.26-.18Z" transform="translate(-1.36 -1.36)"/><path class="cls-1" d="M50,34.73A15.27,15.27,0,1,0,65.27,50,15.26,15.26,0,0,0,50,34.73Zm0,25.19A9.92,9.92,0,1,1,59.92,50,9.92,9.92,0,0,1,50,59.92Z" transform="translate(-1.36 -1.36)"/><circle class="cls-1" cx="64.52" cy="32.76" r="3.57"/></svg>