<svg id="Capa_1" data-name="Capa 1" xmlns="http://www.w3.org/2000/svg" viewBox="0 0 98.86 98.86"><defs><style>.cls-1{fill:#c0bcb9;}</style></defs><path class="cls-1" d="M50,99.43A49.43,49.43,0,1,1,99.43,50,49.48,49.48,0,0,1,50,99.43Zm0-96A46.59,46.59,0,1,0,96.59,50,46.64,46.64,0,0,0,50,3.41Z" transform="translate(-0.57 -0.57)"/><path class="cls-1" d="M40.3,77.65c23.45,0,36.27-19.43,36.27-36.27,0-.55,0-1.1,0-1.65a25.75,25.75,0,0,0,6.36-6.6,25.6,25.6,0,0,1-7.32,2,12.81,12.81,0,0,0,5.61-7.06,25.31,25.31,0,0,1-8.1,3.1A12.76,12.76,0,0,0,51.36,42.81,36.24,36.24,0,0,1,25.08,29.49a12.76,12.76,0,0,0,4,17,12.51,12.51,0,0,1-5.77-1.59.86.86,0,0,0,0,.16,12.76,12.76,0,0,0,10.23,12.5,12.85,12.85,0,0,1-3.36.45,12.68,12.68,0,0,1-2.4-.23,12.77,12.77,0,0,0,11.91,8.85,25.69,25.69,0,0,1-18.87,5.28A36,36,0,0,0,40.3,77.65" transform="translate(-0.57 -0.57)"/></svg>