<?xml version="1.0" encoding="utf-8"?>
<!-- Generator: Adobe Illustrator 25.2.1, SVG Export Plug-In . SVG Version: 6.00 Build 0)  -->
<svg version="1.1" id="Capa_1" xmlns="http://www.w3.org/2000/svg" xmlns:xlink="http://www.w3.org/1999/xlink" x="0px" y="0px"
	 viewBox="0 0 97.3 97.3" style="enable-background:new 0 0 97.3 97.3;" xml:space="preserve">
<style type="text/css">
	.st0{fill:#F4F9F9;}
</style>
<path class="st0" d="M48.6,97.3C21.8,97.3,0,75.5,0,48.6S21.8,0,48.6,0s48.6,21.8,48.6,48.6l0,0C97.2,75.5,75.5,97.2,48.6,97.3z
	 M48.6,2.8C23.3,2.8,2.8,23.3,2.8,48.6s20.5,45.8,45.8,45.8S94.5,74,94.5,48.6l0,0C94.5,23.3,73.9,2.8,48.6,2.8z"/>
<path class="st0" d="M67.7,61.9l2.2-14.1H56.4v-9.1c0-3.8,1.9-7.6,7.9-7.6h6.1v-12c-3.6-0.6-7.2-0.9-10.9-1
	c-11.1,0-18.4,6.7-18.4,18.9v10.7H28.8v14.1h12.4v34c5,0.8,10.2,0.8,15.2,0v-34H67.7z"/>
</svg>
