<?xml version="1.0" encoding="utf-8"?>
<!-- Generator: Adobe Illustrator 25.2.1, SVG Export Plug-In . SVG Version: 6.00 Build 0)  -->
<svg version="1.1" id="Capa_1" xmlns="http://www.w3.org/2000/svg" xmlns:xlink="http://www.w3.org/1999/xlink" x="0px" y="0px"
	 viewBox="0 0 97.3 97.3" style="enable-background:new 0 0 97.3 97.3;" xml:space="preserve">
<style type="text/css">
	.st0{fill:#F4F9F9;}
</style>
<path class="st0" d="M48.6,97.3C21.8,97.3,0,75.5,0,48.6S21.8,0,48.6,0s48.6,21.8,48.6,48.6l0,0C97.2,75.5,75.5,97.2,48.6,97.3z
	 M48.6,2.8C23.3,2.8,2.8,23.3,2.8,48.6s20.5,45.8,45.8,45.8S94.5,74,94.5,48.6l0,0C94.5,23.3,73.9,2.8,48.6,2.8z"/>
<path class="st0" d="M48.6,24.2c7.9,0,8.9,0,12,0.2c1.9,0,3.8,0.3,5.5,1c2.6,1,4.6,3.1,5.7,5.7c0.7,1.8,1,3.6,1,5.5
	c0.2,3.1,0.2,4.1,0.2,12s0,8.9-0.2,12c0,1.9-0.3,3.8-1,5.5c-1,2.6-3.1,4.6-5.7,5.7c-1.8,0.7-3.6,1-5.5,1c-3.1,0.2-4.1,0.2-12,0.2
	s-8.9,0-12-0.2c-1.9,0-3.8-0.3-5.5-1c-2.6-1-4.6-3.1-5.6-5.7c-0.7-1.8-1-3.6-1-5.5c-0.1-3.1-0.2-4.1-0.2-12s0-8.9,0.2-12
	c0-1.9,0.3-3.8,1-5.5c1-2.6,3.1-4.6,5.6-5.6c1.8-0.7,3.6-1,5.5-1C39.8,24.3,40.7,24.2,48.6,24.2 M48.6,18.9c-8.1,0-9.1,0-12.3,0.2
	c-2.5,0.1-4.9,0.5-7.2,1.4c-4,1.5-7.2,4.7-8.7,8.7c-0.9,2.3-1.3,4.8-1.4,7.2c-0.1,3.2-0.2,4.2-0.2,12.3s0,9.1,0.2,12.3
	c0.1,2.5,0.5,4.9,1.4,7.2c1.5,4,4.7,7.2,8.7,8.7c2.3,0.9,4.8,1.3,7.2,1.4c3.2,0.1,4.2,0.2,12.3,0.2s9.1,0,12.3-0.2
	c2.5-0.1,4.9-0.5,7.2-1.4c4-1.5,7.2-4.7,8.7-8.7c0.9-2.3,1.3-4.8,1.4-7.2c0.1-3.2,0.2-4.2,0.2-12.3s0-9.1-0.2-12.3
	c-0.1-2.5-0.5-4.9-1.4-7.2c-1.5-4-4.7-7.2-8.7-8.7c-2.3-0.9-4.8-1.3-7.2-1.4C57.7,18.9,56.7,18.9,48.6,18.9z"/>
<path class="st0" d="M48.6,33.4c-8.4,0-15.3,6.8-15.3,15.3s6.8,15.3,15.3,15.3s15.3-6.8,15.3-15.3l0,0
	C63.9,40.2,57.1,33.4,48.6,33.4C48.7,33.4,48.6,33.4,48.6,33.4z M48.6,58.6c-5.5,0-9.9-4.4-9.9-9.9s4.4-9.9,9.9-9.9s9.9,4.4,9.9,9.9
	v0C58.6,54.1,54.1,58.6,48.6,58.6z"/>
<circle class="st0" cx="64.5" cy="32.8" r="3.6"/>
</svg>
