<svg xmlns="http://www.w3.org/2000/svg" xmlns:xlink="http://www.w3.org/1999/xlink" viewBox="0 0 213.1 195.75"><defs><style>.cls-1{fill:url(#Degradado_sin_nombre_21);}</style><linearGradient id="Degradado_sin_nombre_21" x1="106.55" y1="-7.88" x2="106.55" y2="190.2" gradientUnits="userSpaceOnUse"><stop offset="0" stop-color="#01f8f5"/><stop offset="1" stop-color="#006ef0"/></linearGradient></defs><g id="Capa_2" data-name="Capa 2"><g id="OBJECTS"><path class="cls-1" d="M58.12,144.81a3.55,3.55,0,0,0,3.33-2.37H71.78A1.18,1.18,0,0,0,73,141.26V100.35a3.55,3.55,0,1,0-2.35,0v39.73H61.45a3.54,3.54,0,1,0-3.33,4.73ZM178.76,69.09H97.58V58.62h53.31a3.55,3.55,0,1,0,0-2.36H96.4a1.18,1.18,0,0,0-1.18,1.18V70.27a1.18,1.18,0,0,0,1.18,1.18h82.36A7.58,7.58,0,0,0,185.32,60a3,3,0,0,0,.25-.61,3.55,3.55,0,1,0-4.4,2.41,3.49,3.49,0,0,0,2.35-.14,5.21,5.21,0,0,1-4.76,7.39ZM112.21,149a3.55,3.55,0,1,0,4.73-3.33V79a1.18,1.18,0,0,0-1.18-1.18H102.92A1.18,1.18,0,0,0,101.74,79v83.69a7.61,7.61,0,0,0,7.6,7.6,7.51,7.51,0,0,0,3.81-1,3.26,3.26,0,0,0,.61.25,3.55,3.55,0,1,0-2.4-4.4,3.49,3.49,0,0,0,.14,2.35,5.21,5.21,0,0,1-7.4-4.76V80.14h10.48v65.53A3.54,3.54,0,0,0,112.21,149ZM70.75,71.45a1.18,1.18,0,0,0,1.18-1.18V57.44a1.18,1.18,0,0,0-1.18-1.18H38.39a1.18,1.18,0,0,0-1.18,1.18V70.27a1.18,1.18,0,0,0,1.18,1.18ZM39.57,58.62h30V69.09h-30Zm67,122.62A21.47,21.47,0,0,0,128,159.8V80.14h49.17a21.44,21.44,0,0,0,0-42.87H87.47V31.19A1.18,1.18,0,0,0,86.29,30H42.82a3.55,3.55,0,1,0,0,2.36H85.11v6.08a1.17,1.17,0,0,0,1.18,1.17h90.87a19.08,19.08,0,0,1,0,38.16H126.81A1.18,1.18,0,0,0,125.63,79V159.8a19.08,19.08,0,0,1-38.16,0V86.22A1.18,1.18,0,0,0,86.29,85H67a3.55,3.55,0,1,0,0,2.35h18.1V159.8A21.47,21.47,0,0,0,106.55,181.24ZM35.94,39.62H54.06a3.55,3.55,0,1,0,0-2.35H35.94a21.44,21.44,0,0,0,0,42.87H79A1.18,1.18,0,0,0,80.22,79V48.33A1.18,1.18,0,0,0,79,47.15H36.93A10.91,10.91,0,0,0,26,58.05v3a3.54,3.54,0,1,0,2.36,0v-3a8.55,8.55,0,0,1,8.54-8.54H77.86V77.78H35.94a19.08,19.08,0,0,1,0-38.16ZM96.5,6.88V31.19a1.18,1.18,0,0,0,1.18,1.18h79.48a26.34,26.34,0,0,1,0,52.67H141.32a1.17,1.17,0,0,0-1.18,1.18V96.59a3.55,3.55,0,1,0,2.35,0v-9.2h34.67a28.69,28.69,0,0,0,0-57.38H98.86V6.88a3.54,3.54,0,1,0-2.36,0Zm59.83,100.49a3.54,3.54,0,0,0-3.33,2.37H134.06a1.18,1.18,0,0,0-1.18,1.18V159.8a26.35,26.35,0,0,1-19.74,25.48,3.54,3.54,0,1,0,.45,2.31,28.7,28.7,0,0,0,21.65-27.79V112.1H153a3.54,3.54,0,1,0,3.33-4.73Zm-15,10.35a3.53,3.53,0,0,0-1.18,6.87V159.8a33.59,33.59,0,0,1-66.51,6.67,3.55,3.55,0,1,0-2.34.35,35.95,35.95,0,0,0,71.2-7V124.59a3.53,3.53,0,0,0-1.17-6.87Zm25.5-72.94a3.54,3.54,0,0,0-3.33,2.37H86.29a1.18,1.18,0,0,0-1.18,1.18V79a1.18,1.18,0,0,0,1.18,1.18h7.5v71.15a3.55,3.55,0,1,0,2.36,0V79A1.18,1.18,0,0,0,95,77.78h-7.5V49.51h76a3.54,3.54,0,1,0,3.33-4.73Zm10.34-22H109.35V12.08a3.55,3.55,0,1,0-2.36,0V23.94a1.18,1.18,0,0,0,1.18,1.18h69a33.59,33.59,0,0,1,0,67.17H155.47a3.55,3.55,0,1,0,0,2.36h21.69a35.95,35.95,0,0,0,0-71.89ZM48.85,89.92a3.52,3.52,0,0,0-3.33,2.37H35.94a33.59,33.59,0,0,1,0-67.17H81.42a3.55,3.55,0,1,0,0-2.36H35.94a35.95,35.95,0,0,0,0,71.89h9.58a3.54,3.54,0,1,0,3.33-4.73Zm11.2,22.53a3.52,3.52,0,0,0-2.37-3.33V86.22A1.18,1.18,0,0,0,56.5,85H35.94A26.35,26.35,0,0,1,10.47,65.29a3.53,3.53,0,1,0-2.32.45A28.72,28.72,0,0,0,35.94,87.39H55.32v21.73a3.54,3.54,0,1,0,4.73,3.33Zm20.17,40.13V113.9a3.55,3.55,0,1,0-2.36,0v37.5H56.69a3.55,3.55,0,1,0,0,2.36H79A1.18,1.18,0,0,0,80.22,152.58Z"/></g></g></svg>