<?xml version="1.0" encoding="utf-8"?>
<!-- Generator: Adobe Illustrator 25.2.1, SVG Export Plug-In . SVG Version: 6.00 Build 0)  -->
<svg version="1.1" id="Capa_1" xmlns="http://www.w3.org/2000/svg" xmlns:xlink="http://www.w3.org/1999/xlink" x="0px" y="0px"
	 viewBox="0 0 98.9 98.9" style="enable-background:new 0 0 98.9 98.9;" xml:space="preserve">
<style type="text/css">
	.st0{fill:#F4F9F9;}
</style>
<path class="st0" d="M49.4,98.9C22.1,98.9,0,76.7,0,49.4S22.1,0,49.4,0s49.4,22.1,49.4,49.4l0,0C98.8,76.7,76.7,98.8,49.4,98.9z
	 M49.4,2.9C23.7,2.9,2.8,23.7,2.8,49.4S23.7,96,49.4,96S96,75.2,96,49.4c0,0,0,0,0,0C96,23.7,75.1,2.9,49.4,2.9L49.4,2.9z"/>
<path class="st0" d="M39.7,77.1C63.2,77.1,76,57.6,76,40.8c0-0.5,0-1.1,0-1.7c2.5-1.8,4.7-4,6.4-6.6c-2.3,1-4.8,1.7-7.3,2
	c2.7-1.6,4.7-4.1,5.6-7.1c-2.5,1.5-5.2,2.5-8.1,3.1c-4.8-5.2-12.9-5.5-18-0.7c-3.4,3.1-4.8,7.8-3.7,12.3
	C40.5,41.7,31,36.9,24.5,28.9c-3.4,5.8-1.6,13.3,4,17c-2-0.1-4-0.6-5.8-1.6c0,0.1,0,0.1,0,0.2C22.7,50.6,27,55.8,33,57
	c-1.1,0.3-2.2,0.4-3.4,0.5c-0.8,0-1.6-0.1-2.4-0.2c1.7,5.2,6.5,8.7,11.9,8.8c-5.3,4.2-12.1,6.1-18.9,5.3
	C26.1,75.1,32.8,77.1,39.7,77.1"/>
</svg>
